<?xml version="1.0" encoding="UTF-8" standalone="no"?>
<!DOCTYPE svg PUBLIC "-//W3C//DTD SVG 1.1//EN" "http://www.w3.org/Graphics/SVG/1.1/DTD/svg11.dtd"><svg width="100%"
    height="100%" viewBox="0 0 252 200" version="1.1" xmlns="http://www.w3.org/2000/svg"
    xmlns:xlink="http://www.w3.org/1999/xlink" xml:space="preserve" xmlns:serif="http://www.serif.com/"
    style="fill-rule:evenodd;clip-rule:evenodd;stroke-linejoin:round;stroke-miterlimit:2;">
    <path
        d="M188.039,71.387c3.682,21.31 -10.778,41.571 -32.271,45.217c-21.493,3.646 -41.932,-10.694 -45.615,-32.004c-3.682,-21.31 10.778,-41.571 32.271,-45.217c21.493,-3.646 41.932,10.694 45.615,32.004Zm-0.493,0.085c3.635,21.038 -10.643,41.039 -31.862,44.639c-21.22,3.6 -41.402,-10.557 -45.038,-31.596c-3.635,-21.038 10.643,-41.039 31.862,-44.639c21.22,-3.6 41.402,10.557 45.038,31.596Z"
        style="fill:#c3c3c3;" />
    <path
        d="M172.973,72.018c2.069,11.973 -6.056,23.357 -18.133,25.406c-12.076,2.049 -23.56,-6.009 -25.629,-17.982c-2.069,-11.974 6.055,-23.358 18.132,-25.407c12.076,-2.049 23.561,6.009 25.63,17.983Z"
        style="fill:#565656;" />
    <path
        d="M198.394,73.16c4.651,26.915 -13.613,52.506 -40.759,57.111c-27.147,4.605 -52.963,-13.508 -57.613,-40.423c-4.651,-26.915 13.612,-52.506 40.759,-57.111c27.147,-4.605 52.962,13.507 57.613,40.423Zm-0.493,0.085c4.604,26.643 -13.477,51.974 -40.35,56.533c-26.874,4.559 -52.433,-13.37 -57.037,-40.015c-4.604,-26.644 13.478,-51.974 40.351,-56.533c26.874,-4.559 52.432,13.37 57.036,40.015Z"
        style="fill:#c3c3c3;" />
    <path
        d="M205.817,79.653c6.599,38.188 -19.314,74.497 -57.831,81.032c-38.517,6.534 -75.146,-19.166 -81.744,-57.354c-6.599,-38.189 19.314,-74.498 57.831,-81.032c38.517,-6.534 75.145,19.165 81.744,57.354Zm-0.493,0.085c6.552,37.917 -19.179,73.966 -57.422,80.454c-38.245,6.488 -74.615,-19.028 -81.168,-56.946c-6.552,-37.917 19.18,-73.966 57.422,-80.454c38.245,-6.488 74.616,19.027 81.168,56.946Z"
        style="fill:#c3c3c3;" />
    <path
        d="M250.308,82.834c9.364,54.195 -27.41,105.723 -82.072,114.996c-54.661,9.273 -106.642,-27.198 -116.007,-81.393c-9.365,-54.196 27.41,-105.724 82.071,-114.997c54.662,-9.272 106.643,27.199 116.008,81.394Zm-0.493,0.085c9.318,53.924 -27.275,105.192 -81.662,114.418c-54.389,9.227 -106.113,-27.06 -115.431,-80.985c-9.318,-53.924 27.275,-105.192 81.662,-114.419c54.389,-9.226 106.113,27.061 115.431,80.986Z"
        style="fill:#c3c3c3;" />
    <path
        d="M192.863,137.269c0.296,1.712 -0.866,3.341 -2.593,3.634c-1.728,0.293 -3.37,-0.86 -3.666,-2.572c-0.296,-1.713 0.866,-3.341 2.593,-3.635c1.728,-0.293 3.371,0.86 3.666,2.573Z"
        style="fill:#565656;" />
    <path
        d="M113.675,111.735c0.378,2.189 -1.107,4.269 -3.314,4.644c-2.207,0.374 -4.306,-1.099 -4.684,-3.287c-0.378,-2.188 1.107,-4.269 3.314,-4.643c2.207,-0.374 4.306,1.098 4.684,3.286Z"
        style="fill:#565656;" />
    <path
        d="M224.418,25.815c0.398,2.301 -1.163,4.488 -3.484,4.882c-2.32,0.394 -4.527,-1.155 -4.924,-3.455c-0.398,-2.301 1.163,-4.488 3.484,-4.882c2.32,-0.393 4.527,1.155 4.924,3.455Z"
        style="fill:#565656;" />
    <path
        d="M233.274,163.807c0.71,4.109 -2.078,8.015 -6.221,8.718c-4.144,0.703 -8.085,-2.062 -8.795,-6.17c-0.71,-4.109 2.078,-8.015 6.222,-8.718c4.144,-0.703 8.084,2.062 8.794,6.17Z"
        style="fill:#565656;" />
    <path
        d="M7.658,153.059c0.359,2.08 -1.052,4.058 -3.15,4.414c-2.098,0.356 -4.093,-1.044 -4.452,-3.124c-0.36,-2.08 1.052,-4.058 3.15,-4.414c2.098,-0.355 4.093,1.044 4.452,3.124Z"
        style="fill:#565656;" /></svg>